<svg width="215" height="31" viewBox="0 0 215 31" fill="none" xmlns="http://www.w3.org/2000/svg">
<path d="M15 0L18.3677 10.3647H29.2658L20.4491 16.7705L23.8168 27.1353L15 20.7295L6.18322 27.1353L9.55093 16.7705L0.734152 10.3647H11.6323L15 0Z" fill="#E9E7DE"/>
<path d="M61.2534 0L64.6211 10.3647H75.5193L66.7025 16.7705L70.0702 27.1353L61.2534 20.7295L52.4366 27.1353L55.8043 16.7705L46.9876 10.3647H57.8857L61.2534 0Z" fill="#E9E7DE"/>
<path d="M107.507 0L110.875 10.3647H121.773L112.956 16.7705L116.324 27.1353L107.507 20.7295L98.6905 27.1353L102.058 16.7705L93.2415 10.3647H104.14L107.507 0Z" fill="#E9E7DE"/>
<path d="M153.761 0L157.128 10.3647H168.027L159.21 16.7705L162.578 27.1353L153.761 20.7295L144.944 27.1353L148.312 16.7705L139.495 10.3647H150.393L153.761 0Z" fill="#E9E7DE"/>
<path d="M200.015 0L203.382 10.3647H214.28L205.464 16.7705L208.831 27.1353L200.015 20.7295L191.198 27.1353L194.566 16.7705L185.749 10.3647H196.647L200.015 0Z" fill="#E9E7DE"/>
</svg>
