<svg width="335" height="337" viewBox="0 0 335 337" fill="none" xmlns="http://www.w3.org/2000/svg">
<path d="M203.432 259.348L202.577 264.006L203.533 269.838L206.326 273.135L206.191 276.677L204.004 278.624L203.598 282.978L200.466 289.437L199.323 288.507L199.189 285.58L195.46 281.098L194.874 274.694L195.443 265.444L196.363 261.203L195.227 259.04L194.775 254.664L197.695 247.84L198.123 250.456L199.933 249.227L201.367 252.944L202.978 254.357L203.432 259.348Z" fill="#D4D4D4"/>
<path d="M179.122 168.586L178.61 174.822L174.818 174.851L176.125 178.14L173.889 187.826L172.604 190.347L166.717 190.717L163.319 194.09L157.757 192.941L148.131 189.096L146.627 183.885L139.973 186.49L139.188 189.334L135.111 187.211L131.675 186.805L128.627 184.072L129.658 180.387L129.398 177.701L131.43 176.867L134.837 181.068L135.795 177.076L141.734 177.723L146.546 175.001L149.776 175.465L151.874 178.572L152.501 175.996L151.548 166.043L153.966 164.089L156.341 156.95L161.342 161.941L165.129 155.593L167.499 154.426L172.727 159.175L175.889 158.37L178.992 161.297L178.451 163.255L179.122 168.586Z" fill="#D4D4D4"/>
<path d="M192.763 217.08L195.202 217.043L193.517 223.363L196.763 228.851L195.781 235.515L194.196 236.137L192.938 237.424L190.748 240.692L189.761 248.373L183.803 243.093L181.261 237.231L178.696 234.109L175.601 228.815L174.141 224.391L170.844 217.68L172.251 211.675L174.669 215.005L176.127 211.997L179.272 211.675L185.062 214.083L189.715 213.882L192.763 217.08Z" fill="#D4D4D4"/>
<path d="M87.1213 117.552L92.0511 118.84L98.2896 115.433L102.552 122.59L106.252 126.381L105.489 137.241L103.733 137.845L103.003 146.737L97.113 139.517L93.6599 140.754L88.9582 133.227L85.8294 126.758L82.7005 126.494L81.7256 120.779L87.1213 117.552Z" fill="#D4D4D4"/>
<path d="M217.347 226.054L219.285 231.901L221.893 230.862L227.068 233.072L236.954 233.819L240.294 230.203L248.221 226.895L253.119 232.062L257.079 233.548L253.585 239.388L251.126 249.373L253.297 257.259L247.5 255.411L240.642 259.74L240.57 266.542L234.449 267.826L229.707 263.066L224.316 266.813L219.335 266.418L218.858 257.369L215.486 252.945L216.593 250.991L215.863 249.341L216.994 244.913L219.561 240.54L216.291 234.463L215.686 229.285L217.347 226.054Z" fill="#D4D4D4"/>
<path d="M222.916 74.2608L229.424 74.3778L236.733 67.8024L238.296 57.8349L243.817 52.1194L243.183 44.0437L247.277 40.9883L254.51 33.9299L261.598 38.5257L262.554 43.0485L266.089 40.8786L272.671 45.2074L273.329 53.6525L271.888 58.4606L276.107 69.9979L278.849 73.1776L278.443 76.3172L282.982 79.3579L284.922 83.9464L282.302 87.686L276.87 87.0933L275.574 88.685L277.156 94.3201L278.811 105.067L273.031 106.055L270.956 109.696L270.524 117.984L267.846 116.399L261.769 117.186L260.004 113.344L257.48 116.209L254.947 113.834L249.645 113.505L242.131 109.538L235.331 108.239L230.113 108.609L226.424 113.091L223.204 113.732L223.077 106.366L221 98.6195L225.036 95.1799L225.077 88.4179L223.209 81.9084L222.916 74.2608Z" fill="#D4D4D4"/>
<path d="M129.397 177.701L129.657 180.387L128.627 184.072L131.674 186.805L135.11 187.211L134.577 193.322L131.609 195.825L126.626 193.966L125.169 199.93L121.963 200.399L120.796 198.061L117.021 203.052L113.775 203.751L110.876 200.604L108.566 194.123L105.351 196.443L105.449 189.718L110.372 181.291L110.156 177.449L113.225 178.843L115.071 176.256L120.798 176.362L122.182 173.058L129.397 177.701Z" fill="#D4D4D4"/>
<path d="M178.992 161.297L175.889 158.37L172.727 159.175L167.499 154.426L165.129 155.593L161.342 161.941L156.341 156.95L152.539 150.232L149.103 146.452L148.39 139.774L147.211 135.032L152.105 131.541L154.604 127.524L159.441 124.384L161.129 121.289L162.903 123.158L165.907 121.461L169.101 126.689L174.134 128.098L173.714 132.529L177.371 135.841L178.375 131.702L182.995 133.499L183.631 138.501L188.638 139.467L191.735 147.261L189.728 147.279L188.686 150.111L187.139 150.792L186.7 154.352L185.41 155.092L185.228 156.541L182.93 158.147L179.948 157.887L178.992 161.297Z" fill="#D4D4D4"/>
<path d="M131.603 55.4109L131.723 62.2717L138.528 66.3773L138.456 72.5868L145.3 69.3083L149.087 64.5002L156.689 71.4232L159.866 76.9595L161.441 85.7157L159.563 90.2677L162.008 96.3015L163.674 105.263L163.148 110.982L165.907 121.462L162.904 123.16L161.129 121.29L159.441 124.385L154.605 127.525L152.105 131.543L147.211 135.033L148.39 139.776L149.103 146.453L152.54 150.233L156.341 156.952L153.966 164.09L151.548 166.044L152.501 175.997L151.874 178.573L149.776 175.467L146.546 175.002L141.734 177.724L135.795 177.077L134.837 181.069L131.43 176.868L129.398 177.702L122.183 173.059L120.8 176.363L115.072 176.257L115.927 165.371L119.332 154.76L109.631 151.884L106.454 147.774L106.834 140.84L105.489 137.243L106.253 126.383L105.122 109.222L109.168 109.215L110.873 102.954L112.551 87.4941L111.293 81.7017L112.609 78.0498L118.235 77.1095L119.484 80.915L124.056 72.3782L122.516 65.8174L122.207 55.7731L127.295 58.1223L131.603 55.4109Z" fill="#D4D4D4"/>
<path d="M150.242 44.1384L146.2 58.6688L139.155 48.566L138.216 41.0501L148.093 34.9906L150.242 44.1384ZM138.271 28.5835L136.626 35.5395L134.621 33.5452L129.773 46.6705L131.603 55.4122L127.295 58.1236L122.207 55.7745L119.474 45.8106L119.27 27.0759L120.391 22.0446L122.322 16.4096L128.253 15.2387L130.616 10.0097L136.033 4.61987L135.805 14.4117L133.812 20.5443L134.619 25.7733L138.271 28.5835Z" fill="#D4D4D4"/>
<path d="M3.97338 258.999L4.31201 249.166L1.5625 243.122L11.086 232.968L19.3248 235.518L28.3656 235.43L35.531 237.834L41.1188 237.095L52.0014 237.563L54.686 243.015L67.079 249.349L69.5259 246.345L77.1019 252.621L84.9061 250.828L85.2663 258.841L78.8861 267.938L70.2583 270.807L69.658 275.351L65.5206 282.79L62.9272 293.606L65.5518 301.122L61.6569 306.948L60.2018 315.371L55.1182 317.94L50.3493 327.783L41.8055 327.977L35.3869 327.735L31.1703 332.221L28.5985 337L25.3039 335.954L22.8114 331.676L20.9024 324.354L14.6183 322.371L14.0564 318.123L16.5513 313.285L17.4758 309.762L15.1537 305.894L17.0124 297.295L14.3157 289.373L17.2236 288.279L17.495 281.981L18.5876 280.02L18.674 269.5L21.7861 265.819L19.9035 258.962L15.9798 258.479L14.8272 260.213L10.8507 260.228L9.16499 253.492L6.41547 255.504L3.97338 258.999Z" fill="#D4D4D4"/>
<path d="M129.168 255.261L126.944 265.847L123.887 263.069L122.329 253.827L123.688 248.678L128.025 243.354L129.168 255.261ZM88.9584 133.229L93.6577 140.756L97.1132 139.519L103.004 146.739L104.509 148.107L106.452 147.774L109.629 151.883L119.33 154.763L115.927 165.371L115.072 176.257L113.223 178.844L110.155 177.45L110.371 181.292L105.446 189.719L105.347 196.444L108.562 194.124L110.875 200.605L110.596 204.754L112.577 210.235L110.243 214.656L111.979 225.776L115.629 227.583L114.859 233.745L108.759 241.697L95.4803 237.895L85.6759 242.447L84.9051 250.833L77.1009 252.626L69.5249 246.347L67.0756 249.351L54.6826 243.021L51.998 237.565L55.4798 229.08L56.7621 200.257L49.8128 184.654L44.847 177.021L34.5575 171.171L33.8779 159.952L42.6089 156.574L53.9142 160.566L51.7794 142.838L58.1356 149.604L73.8112 137.258L75.833 124.067L81.721 120.781L82.6959 126.496L85.8248 126.763L88.9584 133.229Z" fill="#D4D4D4"/>
<path d="M191.579 201.815L193.214 207.487L195.354 211.636L192.763 217.081L189.716 213.883L185.062 214.084L179.273 211.677L176.127 211.999L174.669 215.006L172.251 211.677L170.844 217.681L174.141 224.392L175.601 228.816L178.696 234.111L181.261 237.232L183.804 243.094L189.761 248.374L189.022 250.734L182.692 245.586L178.788 240.554L172.631 236.376L166.968 225.936L168.328 224.868L165.256 218.838L165.131 213.964L160.802 211.677L158.739 217.919L156.751 213.082L156.902 208.032L157.142 207.798L161.834 208.296L163.066 205.829L165.357 208.215L167.999 208.497L167.975 204.413L170.313 202.913L170.969 196.96L176.329 193.022L178.468 194.852L183.501 201.186L189.063 204.007L191.579 201.815Z" fill="#D4D4D4"/>
<path d="M173.889 187.827L176.124 178.141L174.818 174.852L178.61 174.822L179.121 168.587L182.548 172.499L185.031 174.16L190.681 172.294L191.223 169.224L193.899 168.77L197.176 166.388L197.906 167.372L201.066 165.455L202.646 161.825L204.853 160.881L212.064 165.568L213.5 163.995L217.237 168.177L217.707 172.276L213.594 175.466L210.41 185.705L206.337 195.807L200.939 198.596L196.737 197.941L191.579 201.816L189.062 204.007L183.501 201.186L178.468 194.852L176.328 193.023L175.02 187.992L173.889 187.827Z" fill="#D4D4D4"/>
<path d="M169.297 307.742L166.872 317.925L167.878 321.903L166.466 328.471L161.315 323.666L157.891 322.287L148.493 315.752L149.436 309.107L157.315 310.292L164.183 308.876L169.297 307.742ZM126.811 268.158L130.85 277.752L129.904 295.356L126.843 294.522L124.096 298.916L121.545 295.425L121.277 279.384L119.74 271.681L123.443 272.358L126.811 268.158ZM148.13 189.095L157.759 192.941L157.029 200.226L158.64 206.472L153.281 204.339L147.806 209.524L148.178 216.718L147.354 220.819L149.561 228.098L155.874 235.236L159.26 246.825L166.752 257.974L172.028 257.89L173.668 260.924L171.778 263.65L177.808 268.571L182.752 272.669L188.524 279.691L189.223 282.19L187.965 286.969L184.228 280.734L178.379 278.527L175.545 287.17L180.41 292.088L179.611 298.964L176.799 299.743L173.202 310.929L170.397 311.924L170.424 307.958L171.797 300.958L173.259 298.155L170.63 290.507L168.577 283.8L165.782 282.135L163.794 276.343L159.467 273.891L156.554 268.45L151.571 267.568L146.31 261.41L140.151 252.453L135.574 244.446L133.473 230.531L130.123 228.877L124.646 224.168L121.545 226.1L117.655 232.693L114.858 233.733L115.629 227.571L111.979 225.763L110.243 214.643L112.577 210.223L110.596 204.741L110.874 200.592L113.773 203.739L117.019 203.043L120.794 198.052L121.961 200.391L125.167 199.922L126.624 193.958L131.607 195.817L134.572 193.314L135.106 187.203L139.185 189.329L139.968 186.486L146.622 183.881L148.13 189.095Z" fill="#D4D4D4"/>
<path d="M204.589 256.642L204.287 259.459L203.432 259.346L202.978 254.355L201.367 252.942L199.933 249.225L201.191 246.107L202.803 245.105L203.734 240.457L204.942 239.682L205.898 241.661L207.156 242.532L208.037 244.753L209.144 245.412L210.453 247.991L211.409 247.915L210.655 251.296L209.848 252.942L210.071 253.978L208.566 254.508L204.589 256.642Z" fill="#D4D4D4"/>
<path d="M217.847 67.0123L217.307 62.5189L218.027 57.6633L215.05 54.8348L208 51.7026L206.568 36.466L214.279 30.82L225.57 32.0056L232.183 30.1797L233.129 34.0144L236.712 35.1927L243.183 44.044L243.817 52.1197L238.296 57.8353L236.733 67.8027L229.424 74.3782L222.916 74.2611L221.3 68.8858L217.847 67.0123Z" fill="#D4D4D4"/>
<path d="M105.489 137.242L106.833 140.839L106.454 147.773L104.511 148.102L103.003 146.737L103.733 137.845L105.489 137.242Z" fill="#D4D4D4"/>
<path d="M206.568 36.4668L206.799 22.5328L210.108 10.6956L216.454 4.17145L221.8 18.3652L227.202 17.9993L228.497 3.40296L234.231 0L237.182 2.36378L242.977 9.46986L248.528 9.5028L251.772 13.8754L252.346 22.9902L254.51 33.9311L247.277 40.9895L243.183 44.0448L236.712 35.1935L233.129 34.0152L232.183 30.1805L225.57 32.0064L214.279 30.8208L206.568 36.4668Z" fill="#D4D4D4"/>
<path d="M198.123 250.455L197.695 247.838L194.775 254.663L195.227 259.039L193.817 257.978L191.932 253.477L189.022 250.729L189.762 248.373L190.748 240.692L192.938 237.424L194.197 236.136L195.983 238.555L196.965 240.498L199.179 242.009L201.746 244.911L201.192 246.108L199.933 249.225L198.123 250.455Z" fill="#D4D4D4"/>
<path d="M203.432 259.348L204.287 259.461L204.59 256.644L208.566 254.511L210.072 253.98L212.365 253.175L215.487 252.945L218.858 257.368L219.336 266.417L218.054 266.871L216.944 269.239L213.297 268.975L210.73 271.939L206.326 273.136L203.533 269.839L202.575 264.006L203.432 259.348Z" fill="#D4D4D4"/>
<path d="M97.9979 87.208L97.5873 90.5304L98.7495 91.1085L99.2586 92.6015L99.4626 93.9591L100.399 94.4676L100.471 95.1885L99.6356 96.1582L98.7111 96.246V97.3145L99.3522 99.016L98.4277 100.67L99.3618 101.127L101.264 98.3061L102.414 95.7154V93.9591L102.013 92.7406L100.913 91.9026L101.165 89.9962L100.913 88.3203L101.912 84.6612L102.901 82.7548L105.696 81.2144L111.291 81.701L112.55 87.4934L110.871 102.953L109.166 109.214L105.12 109.221L106.251 126.383L102.551 122.592L98.2885 115.434L92.05 118.841L87.1201 117.553L88.8058 113.019L91.0078 108.596L94.079 104.025L95.8968 96.3704L96.4851 88.3862L97.9979 87.208Z" fill="#D4D4D4"/>
<path d="M165.907 121.46L163.148 110.981L163.674 105.262L162.008 96.3003L159.563 90.2665L161.441 85.7145L159.865 76.9583L164.466 71.8537L174.974 63.7451L183.453 57.7515L190.172 60.752L190.679 65.0588L197.172 65.2783L205.466 67.2762L217.847 67.0127L221.3 68.8862L222.916 74.2615L223.209 81.9091L225.077 88.4186L225.036 95.1806L221 98.6202L223.077 106.367L223.204 113.732L226.59 127.97L225.869 132.489L222.529 134.359L216.416 147.565L218.152 154.608L216.68 153.701L210.283 147.671L205.437 149.896L202.258 148.282L198.279 151.645L194.883 146.072L192.115 148.212L191.735 147.261L188.638 139.467L183.631 138.501L182.995 133.499L178.375 131.702L177.371 135.841L173.714 132.529L174.134 128.098L169.101 126.689L165.907 121.46Z" fill="#D4D4D4"/>
<path d="M3.97151 259L6.41361 255.506L9.16312 253.493L10.8488 260.23L14.8253 260.215L15.9779 258.481L19.9016 258.964L21.7842 265.821L18.6722 269.502L18.5857 280.022L17.4931 281.983L17.2218 288.281L14.3138 289.375L17.0105 297.297L15.1519 305.896L17.4739 309.763L16.5494 313.287L14.0545 318.124L14.6164 322.373L11.9101 325.692L8.36106 323.895L4.88643 325.304L5.9142 315.259L5.28266 307.29L2.26904 306.09L0.660156 301.139L1.1957 292.522L3.88028 287.71L4.35815 282.32L5.76287 274.244L5.61162 268.507L4.26691 263.618L3.97151 259Z" fill="#D4D4D4"/>
<path d="M217.707 172.275L220.614 169L224.778 170.698L229.096 170.753L232.222 174.478L234.52 172.14L239.488 170.672L241.184 167.09L244.025 167.094L246.075 168.59L248.162 173.12L250.297 179.516L254.182 188.452L254.396 194.984L253.687 201.292L254.893 207.973L257.897 210.656L261.059 208.314L264.114 210.813L264.27 214.553L261.006 217.659L258.96 216.309L257.078 233.547L253.118 232.062L248.22 226.895L240.293 230.203L236.953 233.818L227.067 233.071L221.892 230.861L219.284 231.9L217.346 226.053L216.115 223.561L217.675 221.143L216.014 219.357L213.9 222.57L209.974 218.398L209.446 212.441L205.342 209.02L204.588 204.373L200.938 198.595L206.337 195.807L210.409 185.704L213.593 175.466L217.707 172.275Z" fill="#D4D4D4"/>
<path d="M205.344 209.019L209.448 212.44L209.976 218.397L213.902 222.568L216.015 219.356L217.677 221.141L216.116 223.56L217.348 226.052L215.687 229.283L216.292 234.461L219.562 240.538L216.995 244.911L215.864 249.339L216.594 250.989L215.487 252.943L212.366 253.173L210.072 253.978L209.849 252.943L210.656 251.296L211.41 247.915L210.454 247.992L209.145 245.412L208.038 244.754L207.157 242.533L205.899 241.662L204.943 239.682L203.735 240.458L202.804 245.105L201.192 246.108L201.747 244.911L199.18 242.009L196.966 240.498L195.984 238.555L194.197 236.137L195.782 235.515L196.764 228.851L193.518 223.363L195.204 217.043L192.764 217.08L195.355 211.635L193.215 207.486L191.58 201.814L196.738 197.939L200.94 198.594L204.59 204.372L205.344 209.019Z" fill="#D4D4D4"/>
<path d="M157.758 192.943L163.319 194.092L166.717 190.718L172.605 190.349L173.89 187.827L175.021 187.992L176.329 193.023L170.97 196.961L170.314 202.914L167.975 204.414L167.999 208.498L165.358 208.216L163.067 205.83L161.835 208.297L157.143 207.799L158.641 206.474L157.03 200.228L157.758 192.943Z" fill="#D4D4D4"/>
<path d="M191.735 147.26L192.114 148.211L194.883 146.071L198.278 151.643L202.257 148.281L205.436 149.894L210.282 147.67L216.679 153.7L214.813 157.754L213.5 163.993L212.064 165.566L204.853 160.879L202.646 161.823L201.066 165.453L197.906 167.37L197.176 166.386L193.898 168.768L191.223 169.222L190.68 172.292L185.03 174.158L182.547 172.497L179.121 168.585L178.451 163.254L178.991 161.296L179.947 157.886L182.929 158.146L185.227 156.539L185.41 155.09L186.699 154.351L187.139 150.791L188.685 150.11L189.727 147.278L191.735 147.26Z" fill="#D4D4D4"/>
<path d="M278.811 105.068L281.326 105.742L283.028 101.947L285.072 102.785L292.055 101.168L296.355 110.59L294.674 113.931L295.231 119.024L300.601 119.815L302.995 126.866L302.848 130.042L311.399 135.684L316.567 133.148L320.721 140.624L324.657 140.456L334.581 145.608L334.66 150.229L331.925 158.4L333.412 166.915L332.353 172.019L325.838 173.139L322.368 177.38L322.155 184.083L316.78 185.284L312.3 190.121L305.996 190.908L300.197 196.444L297.018 200.213L300.591 205.592L303.886 209.115L310.753 208.237L309.437 213.426L302.068 215.932L292.926 224.246L289.183 221.333L290.667 214.56L283.311 210.316L284.5 207.524L292.095 201.537L291.152 198.552L290.066 200.056L288.995 199.287L278.53 195.551L278.067 190.011L271.829 191.844L269.329 199.997L264.116 210.813L261.061 208.314L257.899 210.656L254.895 207.974L256.59 206.389L257.764 201.358L259.609 196.653L259.133 194.003L260.54 192.818L261.203 194.871L265.17 195.306L266.954 194.208L265.698 192.704L266.174 190.483L263.823 186.685L262.85 180.402L260.399 177.929L260.881 172.78L257.839 168.668L255.07 168.093L250.107 163.303L245.633 164.829L244.027 167.094L241.186 167.09L239.49 170.673L234.522 172.14L232.224 174.478L229.098 170.753L224.78 170.698L220.616 169.001L217.709 172.275L217.238 168.177L213.501 163.995L214.815 157.756L216.681 153.702L218.153 154.609L216.417 147.565L222.53 134.36L225.87 132.49L226.591 127.971L223.205 113.733L226.425 113.093L230.114 108.61L235.331 108.241L242.132 109.54L249.646 113.506L254.948 113.836L257.481 116.21L260.005 113.345L261.77 117.187L267.847 116.401L270.525 117.985L270.957 109.697L273.032 106.056L278.811 105.068Z" fill="#D4D4D4"/>
</svg>
